<svg width="128" height="128" xmlns="http://www.w3.org/2000/svg">

 <g>
  <title>background</title>
  <rect fill="none" id="canvas_background" height="402" width="582" y="-1" x="-1"/>
 </g>
 <g>
  <title>Layer 1</title>
  <path stroke="#ffffff" id="svg_1" fill="#ffffff" d="m94.2,40l-4.2,68.1c-0.1,2.1 -1.9,3.9 -4,3.9l-44,0c-2.1,0 -3.9,-1.8 -4,-3.9l-4.2,-68.1l-4,0l4.2,68.4c0.3,4.2 3.8,7.6 8,7.6l44,0c4.2,0 7.7,-3.4 8,-7.6l4.2,-68.4l-4,0z"/>
  <path stroke="#ffffff" id="svg_2" fill="#ffffff" d="m102,22l-76,0c-2.2,0 -4,1.8 -4,4l0,8c0,2.2 1.8,4 4,4l76,0c2.2,0 4,-1.8 4,-4l0,-8c0,-2.2 -1.8,-4 -4,-4zm0,12l-76,0l0,-8l76,0l0,8z"/>
  <path stroke="#ffffff" id="svg_3" fill="#ffffff" d="m65,103.7c-0.6,0 -1,-0.4 -1,-1l0,-57.7c0,-0.6 0.4,-1 1,-1s1,0.4 1,1l0,57.7c0,0.5 -0.4,1 -1,1z"/>
  <path stroke="#ffffff" id="svg_4" fill="#ffffff" d="m79.8,103.7c0,0 0,0 0,0c-0.6,0 -1,-0.5 -1,-1l2.2,-57.7c0,-0.6 0.5,-1 1,-1c0.6,0 1,0.5 1,1l-2.2,57.7c0,0.5 -0.4,1 -1,1z"/>
  <path stroke="#ffffff" id="svg_5" fill="#ffffff" d="m49.7,103.7c-0.5,0 -1,-0.4 -1,-1l-2.5,-57.7c0,-0.6 0.4,-1 1,-1c0.5,0 1,0.4 1,1l2.5,57.7c0,0.5 -0.4,0.9 -1,1c0,0 0,0 0,0z"/>
  <path stroke="#ffffff" id="svg_6" fill="#ffffff" d="m53,20l0,-2c0,-1.1 0.9,-2 2,-2l20,0c1.1,0 2,0.9 2,2l0,2l4,0l0,-2c0,-3.3 -2.7,-6 -6,-6l-20,0c-3.3,0 -6,2.7 -6,6l0,2l4,0z"/>
 </g>
</svg>