<svg width="512" height="512" xmlns="http://www.w3.org/2000/svg">

 <g>
  <title>background</title>
  <rect fill="none" id="canvas_background" height="402" width="582" y="-1" x="-1"/>
 </g>
 <g>
  <title>Layer 1</title>
  <path fill="#c3ccd4" stroke="#c3ccd4" id="svg_3" d="m172.75,349.02c-95.22,0 -172.68,-77.46 -172.68,-172.67c0,-95.22 77.46,-172.68 172.68,-172.68s172.68,77.46 172.68,172.68c0,95.21 -77.46,172.67 -172.68,172.67zm0,-329.9c-86.69,0 -157.22,70.53 -157.22,157.22s70.53,157.22 157.22,157.22s157.22,-70.53 157.22,-157.22s-70.53,-157.22 -157.22,-157.22z"/>
  <path fill="#c3ccd4" stroke="#c3ccd4" id="svg_5" d="m172.75,313.82c-75.81,0 -137.48,-61.67 -137.48,-137.48c0,-75.81 61.67,-137.48 137.48,-137.48s137.48,61.67 137.48,137.48c0,75.81 -61.67,137.48 -137.48,137.48zm0,-259.5c-67.29,0 -122.03,54.74 -122.03,122.03c0,67.28 54.74,122.02 122.03,122.02s122.03,-54.74 122.03,-122.02c0,-67.29 -54.74,-122.03 -122.03,-122.03z"/>
  <path fill="#c3ccd4" stroke="#c3ccd4" id="svg_7" d="m455.78,508.33c-5.58,0 -11.17,-2.13 -15.42,-6.38l-139.01,-139.01c-4.12,-4.12 -6.39,-9.6 -6.39,-15.42c0,-5.83 2.27,-11.3 6.39,-15.42l34.36,-34.35c8.49,-8.5 22.31,-8.5 30.83,-0.01l139.01,139.02c8.5,8.5 8.5,22.33 0.01,30.83l-34.36,34.36c0,0 0,0 0,0.01c-4.26,4.24 -9.84,6.37 -15.42,6.37zm9.95,-11.84l0.08,0l-0.08,0zm-114.61,-189.67c-1.63,0 -3.25,0.62 -4.49,1.86l-34.36,34.36c-1.2,1.2 -1.86,2.79 -1.86,4.49c0,1.69 0.66,3.29 1.86,4.49l139.01,139.01c2.47,2.47 6.5,2.49 8.98,-0.01l34.36,-34.35c2.48,-2.48 2.48,-6.5 0,-8.98l-139.01,-139.01c-1.23,-1.24 -2.86,-1.86 -4.49,-1.86z"/>
  <path fill="#c3ccd4" stroke="#c3ccd4" id="svg_9" d="m339.62,312.7c-1.98,0 -3.95,-0.75 -5.46,-2.26l-32.71,-32.71c-3.02,-3.02 -3.02,-7.91 0,-10.93c3.02,-3.02 7.91,-3.02 10.93,0l32.71,32.71c3.02,3.02 3.02,7.91 0,10.93c-1.51,1.5 -3.49,2.26 -5.47,2.26z"/>
  <path fill="#c3ccd4" stroke="#c3ccd4" id="svg_11" d="m306.96,346.19c-1.98,0 -3.95,-0.75 -5.46,-2.26l-32.37,-32.37c-3.02,-3.02 -3.02,-7.91 0,-10.93c3.02,-3.02 7.91,-3.02 10.93,0l32.36,32.37c3.02,3.02 3.02,7.91 0,10.93c-1.51,1.5 -3.49,2.26 -5.46,2.26z"/>
 </g>
</svg>