<svg width="64" height="64" xmlns="http://www.w3.org/2000/svg">

 <g>
  <title>background</title>
  <rect fill="none" id="canvas_background" height="402" width="582" y="-1" x="-1"/>
 </g>
 <g>
  <title>Layer 1</title>
  <rect id="svg_2" y="58" x="15" width="2" height="3" fill="#757575"/>
  <rect id="svg_3" y="58" x="47" width="2" height="3" fill="#757575"/>
  <rect id="svg_4" y="32" x="11" width="42" height="22" fill="#424242"/>
  <rect id="svg_6" y="22" x="11" width="42" height="10" fill="#BDBDBD"/>
  <rect id="svg_7" y="54" x="11" width="42" height="4" fill="#BDBDBD"/>
  <rect id="svg_8" y="33" x="11" width="34" height="20" fill="#E0E0E0"/>
  <rect id="svg_9" y="33" x="46" width="7" height="20" fill="#E0E0E0"/>
  <circle id="svg_11" r="2.5" fill="#F44336" cy="45.5" cx="49.5"/>
  <path id="svg_12" fill="#424242" d="m50,44.1l0,0.9c0,0.7 -1,0.7 -1,0l0,-0.9c-0.6,0.2 -1,0.8 -1,1.4c0,0.8 0.7,1.5 1.5,1.5s1.5,-0.7 1.5,-1.5c0,-0.7 -0.4,-1.2 -1,-1.4z"/>
  <circle id="svg_14" r="2.5" fill="#F44336" cy="27.5" cx="19.5"/>
  <path id="svg_15" fill="#424242" d="m20,26.1l0,0.9c0,0.7 -1,0.7 -1,0l0,-0.9c-0.6,0.2 -1,0.8 -1,1.4c0,0.8 0.7,1.5 1.5,1.5s1.5,-0.7 1.5,-1.5c0,-0.7 -0.4,-1.2 -1,-1.4z"/>
  <circle id="svg_17" r="2.5" fill="#F44336" cy="27.5" cx="44.5"/>
  <path id="svg_18" fill="#424242" d="m45,26.1l0,0.9c0,0.7 -1,0.7 -1,0l0,-0.9c-0.6,0.2 -1,0.8 -1,1.4c0,0.8 0.7,1.5 1.5,1.5s1.5,-0.7 1.5,-1.5c0,-0.7 -0.4,-1.2 -1,-1.4z"/>
  <circle id="svg_20" r="2.5" fill="#F44336" cy="27.5" cx="27.5"/>
  <path id="svg_21" fill="#424242" d="m28,26.1l0,0.9c0,0.7 -1,0.7 -1,0l0,-0.9c-0.6,0.2 -1,0.8 -1,1.4c0,0.8 0.7,1.5 1.5,1.5s1.5,-0.7 1.5,-1.5c0,-0.7 -0.4,-1.2 -1,-1.4z"/>
  <circle id="svg_23" r="2.5" fill="#F44336" cy="27.5" cx="36.5"/>
  <path id="svg_24" fill="#424242" d="m37,26.1l0,0.9c0,0.7 -1,0.7 -1,0l0,-0.9c-0.6,0.2 -1,0.8 -1,1.4c0,0.8 0.7,1.5 1.5,1.5s1.5,-0.7 1.5,-1.5c0,-0.7 -0.4,-1.2 -1,-1.4z"/>
  <circle id="svg_25" r="1" fill="#424242" cy="39" cx="49.5"/>
  <path id="svg_26" fill="#424242" d="m38,37l-20,0c-0.6,0 -1,-0.4 -1,-1l0,0c0,-0.6 0.4,-1 1,-1l20,0c0.6,0 1,0.4 1,1l0,0c0,0.6 -0.4,1 -1,1z"/>
  <path id="svg_27" fill="#E0E0E0" d="m53,22l-42,0c-0.6,0 -1,-0.4 -1,-1l0,-2c0,-0.6 0.4,-1 1,-1l42,0c0.6,0 1,0.4 1,1l0,2c0,0.6 -0.4,1 -1,1z"/>
  <path id="svg_28" fill="#EEEEEE" d="m49,3l-34,0c-2.2,0 -4,1.8 -4,4l0,11l42,0l0,-11c0,-2.2 -1.8,-4 -4,-4z"/>
  <path id="svg_30" fill="#424242" d="m18,16l-2,0c-1.1,0 -2,0.9 -2,2l0,0l5,0l0,-1c0,-0.6 -0.4,-1 -1,-1z"/>
  <path id="svg_31" fill="#424242" d="m25,18l5,0l0,0c0,-1.1 -0.9,-2 -2,-2l-2,0c-0.6,0 -1,0.4 -1,1l0,1z"/>
  <path id="svg_32" fill="#424242" d="m23,18l-2,0l0,-1c0,-0.6 0.4,-1 1,-1l0,0c0.6,0 1,0.4 1,1l0,1z"/>
  <path id="svg_34" fill="#424242" d="m45,17l0,1l5,0l0,0c0,-1.1 -0.9,-2 -2,-2l-2,0c-0.6,0 -1,0.4 -1,1z"/>
  <path id="svg_35" fill="#424242" d="m38,16l-2,0c-1.1,0 -2,0.9 -2,2l0,0l5,0l0,-1c0,-0.6 -0.4,-1 -1,-1z"/>
  <path id="svg_36" fill="#424242" d="m43,18l-2,0l0,-1c0,-0.6 0.4,-1 1,-1l0,0c0.6,0 1,0.4 1,1l0,1z"/>
 </g>
</svg>