<svg width="64" height="64" xmlns="http://www.w3.org/2000/svg">

 <g>
  <title>background</title>
  <rect fill="none" id="canvas_background" height="402" width="582" y="-1" x="-1"/>
 </g>
 <g>
  <title>Layer 1</title>
  <path stroke="#ffffff" id="svg_3" fill="#ffffff" d="m46,63l-20,0c-2.1,0 -4,-1.9 -4,-4l-4,-40.9c0,-2.2 1.9,-4.1 4,-4.1l28,0c2.1,0 4,1.9 4,4l-4,41.1c0,2 -1.9,3.9 -4,3.9zm-24,-47c-1,0 -2,1 -2,2l4,40.9c0,1.1 1,2.1 2,2.1l20,0c1,0 2,-1 2,-2l4,-41.1c0,-0.9 -1,-1.9 -2,-1.9l-28,0z"/>
  <path stroke="#ffffff" id="svg_5" fill="#ffffff" d="m45,60l-18,0c-0.7,0 -1.8,-0.2 -2,-1.9l-3,-30c-0.1,-0.7 0.2,-1.2 0.4,-1.5c0.3,-0.3 0.7,-0.6 1.6,-0.6l24,0c0.8,0 1.3,0.3 1.6,0.6c0.2,0.3 0.5,0.7 0.4,1.5l-3,30c-0.2,1.7 -1.3,1.9 -2,1.9zm-18,-2l18,0c0,0 0,-0.1 0,-0.1l3,-29.9l-24,0l3,30c0,-0.1 0,0 0,0zm-0.1,0l0,0l0,0z"/>
  <path stroke="#ffffff" id="svg_7" fill="#ffffff" d="m38,57l-5,0c-1.5,0 -3,-1.4 -3,-2.9l0,-5.1c0,-1.5 1.5,-3 3,-3l5,0c1.5,0 3,1.5 3,3l0,5c0,1.5 -1.5,3 -3,3zm-5,-9c-0.4,0 -1,0.6 -1,1l0,5.1c0,0.3 0.5,0.9 1,0.9l5,0c0.4,0 1,-0.6 1,-1l0,-5c0,-0.4 -0.6,-1 -1,-1l-5,0z"/>
  <polygon stroke="#ffffff" id="svg_9" points="30,45.2 22.1,8.7 10.6,2.9 11.4,1.1 23.9,7.3 32,44.8   " fill="#ffffff"/>
  <path stroke="#ffffff" id="svg_11" fill="#ffffff" d="m41,25c-1.7,0 -3,-1.3 -3,-3s1.3,-3 3,-3s3,1.3 3,3s-1.3,3 -3,3zm0,-4c-0.6,0 -1,0.4 -1,1s0.4,1 1,1s1,-0.4 1,-1s-0.4,-1 -1,-1z"/>
  <path stroke="#ffffff" id="svg_13" fill="#ffffff" d="m34,21c-1.1,0 -2,-0.9 -2,-2s0.9,-2 2,-2c1.1,0 2,0.9 2,2s-0.9,2 -2,2zm0,-2l0,0l0,0z"/>
  <path stroke="#ffffff" id="svg_15" fill="#ffffff" d="m43,12c-2.2,0 -4,-1.8 -4,-4s1.8,-4 4,-4s4,1.8 4,4s-1.8,4 -4,4zm0,-6c-1.1,0 -2,0.9 -2,2s0.9,2 2,2s2,-0.9 2,-2s-0.9,-2 -2,-2z"/>
  <path stroke="#ffffff" id="svg_17" fill="#ffffff" d="m38,43c-0.9,0 -1.8,-0.4 -2.4,-1l-2.6,-2.6c-0.6,-0.6 -1,-1.5 -1,-2.4c0,-0.9 0.4,-1.8 1,-2.4l2.6,-2.6c0.6,-0.6 1.5,-1 2.4,-1c0,0 0,0 0,0c0.9,0 1.8,0.4 2.4,1l2.6,2.6c0.6,0.6 1,1.5 1,2.4c0,0.9 -0.4,1.8 -1,2.4l-2.6,2.6c-0.6,0.6 -1.5,1 -2.4,1zm0,-10l0,0c-0.4,0 -0.7,0.1 -1,0.4l-2.6,2.6c-0.3,0.3 -0.4,0.6 -0.4,1c0,0.4 0.1,0.7 0.4,1l2.6,2.6c0.5,0.5 1.5,0.5 2,0l2.6,-2.6c0.3,-0.3 0.4,-0.6 0.4,-1c0,-0.4 -0.1,-0.7 -0.4,-1l-2.6,-2.6c-0.3,-0.3 -0.6,-0.4 -1,-0.4z"/>
 </g>
</svg>