<svg width="441.27" height="406.75" xmlns="http://www.w3.org/2000/svg">
 <title/>

 <g>
  <title>background</title>
  <rect fill="none" id="canvas_background" height="402" width="582" y="-1" x="-1"/>
 </g>
 <g>
  <title>Layer 1</title>
  <path fill="#ffffff" stroke="#ffffff" id="svg_1" d="m441.26,202.07c-0.05,-1 -1.39,-24.23 -14.86,-55.91c-12.4,-29.09 -37.8,-71.07 -88.7,-105.85a34.13,34.13 0 0 0 -27.42,-4.92a5.39,5.39 0 1 0 2.58,10.47a23.33,23.33 0 0 1 18.76,3.35c48.55,33.18 72.84,73.08 84.67,100.72a189.23,189.23 0 0 1 13.58,47l-402.87,0l162.36,-86.29a5.39,5.39 0 1 0 -5.06,-9.52l-181.44,96.47a2.53,2.53 0 0 0 -0.27,0.18l-0.34,0.21c-0.17,0.13 -0.33,0.26 -0.48,0.4l-0.25,0.23a5.27,5.27 0 0 0 -0.48,0.58l-0.13,0.17a5.73,5.73 0 0 0 -0.46,0.84c0,0.1 -0.06,0.19 -0.1,0.29a4.88,4.88 0 0 0 -0.2,0.65c0,0.12 0,0.23 -0.06,0.35a4.9,4.9 0 0 0 -0.07,0.67c0,0.06 0,0.13 0,0.19l0,199a5.39,5.39 0 0 0 5.39,5.39l430.47,0a5.39,5.39 0 0 0 5.39,-5.39l0,-199a0.68,0.68 0 0 0 0,-0.14c-0.02,-0.05 -0.01,-0.09 -0.01,-0.14zm-430.48,193.93l0,-51.74l145.22,0a5.39,5.39 0 1 0 0,-10.78l-145.22,0l0,-23.7l356.92,0a5.39,5.39 0 0 0 0,-10.78l-356.92,0l0,-91.26l419.71,0l0,30.8l-390.39,0a5.39,5.39 0 1 0 0,10.78l390.39,0l0,49.68l-24.61,0a5.39,5.39 0 0 0 0,10.78l24.61,0l0,23.7l-190.07,0a5.39,5.39 0 1 0 0,10.78l190.07,0l0,51.74l-419.71,0z"/>
  <path fill="#ffffff" stroke="#ffffff" id="svg_2" d="m198.18,333.48l-3.47,0a5.39,5.39 0 0 0 0,10.78l3.47,0a5.39,5.39 0 0 0 0,-10.78z"/>
  <path fill="#ffffff" stroke="#ffffff" id="svg_3" d="m304.8,94.41a50.71,50.71 0 0 0 -42.8,-57.51a52.55,52.55 0 0 0 -6.49,-0.52c1.63,-9.38 5.64,-19.55 14.49,-26.82a5.39,5.39 0 1 0 -6.84,-8.33c-26.62,21.84 -18.41,61.65 -18,63.34a5.37,5.37 0 0 0 5.26,4.25a5.52,5.52 0 0 0 1.14,-0.12a5.38,5.38 0 0 0 4.13,-6.4a75.2,75.2 0 0 1 -1.18,-15.14a39.91,39.91 0 0 1 39.65,45.69a39.92,39.92 0 1 1 -69,-32.64a5.39,5.39 0 1 0 -8,-7.26a50.7,50.7 0 0 0 30.16,84.28a50.66,50.66 0 0 0 57.48,-42.82z"/>
  <path fill="#ffffff" stroke="#ffffff" id="svg_4" d="m190.54,157.43a5.39,5.39 0 0 0 0.76,7.58l9.92,8.1a5.34,5.34 0 0 0 3.4,1.22a5.39,5.39 0 0 0 3.42,-9.57l-9.92,-8.09a5.38,5.38 0 0 0 -7.58,0.76z"/>
  <path fill="#ffffff" stroke="#ffffff" id="svg_5" d="m130.07,164.35l-7.52,4.65a5.39,5.39 0 1 0 5.65,9.18l7.52,-4.63a5.39,5.39 0 0 0 -5.65,-9.18l0,-0.02z"/>
  <path fill="#ffffff" stroke="#ffffff" id="svg_6" d="m263.42,160.53l-8.76,6.36a5.39,5.39 0 0 0 6.34,8.72l8.76,-6.36a5.39,5.39 0 0 0 -6.34,-8.72z"/>
  <path fill="#ffffff" stroke="#ffffff" id="svg_7" d="m315.33,152.16a5.39,5.39 0 0 0 1.16,7.53l8.68,6.36a5.32,5.32 0 0 0 3.18,1a5.39,5.39 0 0 0 3.19,-9.74l-8.68,-6.31a5.39,5.39 0 0 0 -7.53,1.16z"/>
  <path fill="#ffffff" stroke="#ffffff" id="svg_8" d="m361.51,109.34l-8.51,8.66a5.39,5.39 0 1 0 7.7,7.54l8.5,-8.68a5.39,5.39 0 1 0 -7.7,-7.54l0.01,0.02z"/>
  <path fill="#ffffff" stroke="#ffffff" id="svg_9" d="m336.7,88.59l0,-9a5.39,5.39 0 1 0 -10.77,0l0,9a5.39,5.39 0 1 0 10.77,0z"/>
  <path fill="#ffffff" stroke="#ffffff" id="svg_10" d="m378.06,166.38a5.39,5.39 0 1 0 7.48,-7.76l-5.85,-5.62a5.39,5.39 0 0 0 -7.48,7.76l5.85,5.62z"/>
 </g>
</svg>