<svg width="100" height="100" xmlns="http://www.w3.org/2000/svg">

 <g>
  <title>background</title>
  <rect fill="none" id="canvas_background" height="402" width="582" y="-1" x="-1"/>
 </g>
 <g>
  <title>Layer 1</title>
  <path fill="#ffffff" fill-rule="nonzero" stroke-width="2" id="rect6396" d="m31.25,12.50005c-2.08333,0 -4.16667,2.0833 -4.16667,4.1667l0,14.5833l0,6.25c0,4.1667 4.16667,4.1667 4.16667,8.3333l0,37.50005c0,2.0833 2.08333,4.1666 4.16667,4.1666l4.16667,0c2.08333,0 4.16666,-2.0833 4.16666,-4.1666l0,-37.50005c0,-4.1666 4.16667,-4.1666 4.16667,-8.3333l0,-6.25l0,-2.0833l0,-12.5c0,-2.0834 -2.08333,-4.1667 -4.16667,-4.1667c-1.04166,0 -1.04166,1.2704 -1.04166,2.0833l0,16.6667c0,0.8129 0,2.0833 -1.04167,2.0833c-1.04167,0 -1.04167,-1.2704 -1.04167,-2.0833l0,-16.6667c0,-0.8129 0,-2.0833 -1.04166,-2.0833l-1.04167,0l-3.125,0c-1.04167,0 -1.04167,1.2704 -1.04167,2.0833l0,16.6667c0,0.8129 0,2.0833 -1.04166,2.0833c-1.04167,0 -1.04167,-1.2704 -1.04167,-2.0833l0,-16.6667c0,-0.8129 0,-2.0833 -1.04167,-2.0833zm41.66666,0c-4.16666,0 -11.94808,0.9796 -14.58333,6.25c-2.08333,4.1667 -2.08333,14.5833 -2.08333,18.75l0,16.66665c0,2.0834 2.08333,4.1667 4.16667,4.1667l0,25c0,2.0833 2.08333,4.1666 4.16666,4.1666l4.16667,0c2.08333,0 4.16666,-2.0833 4.16666,-4.1666l0,-70.83335z"/>
 </g>
</svg>