<svg width="128" height="128" xmlns="http://www.w3.org/2000/svg">

 <g>
  <title>background</title>
  <rect fill="none" id="canvas_background" height="402" width="582" y="-1" x="-1"/>
 </g>
 <g>
  <title>Layer 1</title>
  <path fill="#ffffff" stroke="#ffffff" id="svg_2" d="m84,5l-1,0l0,-1c0,-1.654 -1.346,-3 -3,-3s-3,1.346 -3,3l0,1l-6,0l0,-1c0,-1.654 -1.346,-3 -3,-3s-3,1.346 -3,3l0,1l-6,0l0,-1c0,-1.654 -1.346,-3 -3,-3s-3,1.346 -3,3l0,1l-6,0l0,-1c0,-1.654 -1.346,-3 -3,-3s-3,1.346 -3,3l0,1l-6,0l0,-1c0,-1.654 -1.346,-3 -3,-3s-3,1.346 -3,3l0,1l-6,0l0,-1c0,-1.654 -1.346,-3 -3,-3s-3,1.346 -3,3l0,1l-1,0c-5.327,0 -10,4.673 -10,10l0,8.826c-0.011,0.059 -0.035,0.112 -0.035,0.174s0.024,0.115 0.035,0.174l0,92.826c0,5.327 4.673,10 10,10l64,0c0.13,0 0.257,-0.028 0.376,-0.076c0.049,-0.02 0.087,-0.055 0.131,-0.082c0.058,-0.035 0.121,-0.061 0.171,-0.107l13,-12c0.005,-0.005 0.007,-0.011 0.011,-0.016c0.074,-0.071 0.128,-0.158 0.177,-0.249c0.014,-0.027 0.038,-0.047 0.05,-0.075c0.054,-0.121 0.084,-0.254 0.084,-0.395l0,-99c0,-5.327 -4.673,-10 -10,-10zm-1,9c0,1.654 -1.346,3 -3,3s-3,-1.346 -3,-3c0,-0.543 0.148,-1.057 0.414,-1.506c0.52,0.896 1.478,1.506 2.586,1.506s2.066,-0.61 2.586,-1.506c0.266,0.449 0.414,0.963 0.414,1.506zm-4,-10c0,-0.551 0.449,-1 1,-1s1,0.449 1,1l0,7c0,0.551 -0.449,1 -1,1s-1,-0.449 -1,-1l0,-7zm-8,10c0,1.654 -1.346,3 -3,3s-3,-1.346 -3,-3c0,-0.543 0.148,-1.057 0.414,-1.506c0.52,0.896 1.478,1.506 2.586,1.506s2.066,-0.61 2.586,-1.506c0.266,0.449 0.414,0.963 0.414,1.506zm-4,-10c0,-0.551 0.449,-1 1,-1s1,0.449 1,1l0,7c0,0.551 -0.449,1 -1,1s-1,-0.449 -1,-1l0,-7zm-8,10c0,1.654 -1.346,3 -3,3s-3,-1.346 -3,-3c0,-0.543 0.148,-1.057 0.414,-1.506c0.52,0.896 1.478,1.506 2.586,1.506s2.066,-0.61 2.586,-1.506c0.266,0.449 0.414,0.963 0.414,1.506zm-4,-10c0,-0.551 0.449,-1 1,-1s1,0.449 1,1l0,7c0,0.551 -0.449,1 -1,1s-1,-0.449 -1,-1l0,-7zm-8,10c0,1.654 -1.346,3 -3,3s-3,-1.346 -3,-3c0,-0.543 0.148,-1.057 0.414,-1.506c0.52,0.896 1.478,1.506 2.586,1.506s2.066,-0.61 2.586,-1.506c0.266,0.449 0.414,0.963 0.414,1.506zm-4,-10c0,-0.551 0.449,-1 1,-1s1,0.449 1,1l0,7c0,0.551 -0.449,1 -1,1s-1,-0.449 -1,-1l0,-7zm-8,10c0,1.654 -1.346,3 -3,3s-3,-1.346 -3,-3c0,-0.543 0.148,-1.057 0.414,-1.506c0.52,0.896 1.478,1.506 2.586,1.506s2.066,-0.61 2.586,-1.506c0.266,0.449 0.414,0.963 0.414,1.506zm-4,-10c0,-0.551 0.449,-1 1,-1s1,0.449 1,1l0,7c0,0.551 -0.449,1 -1,1s-1,-0.449 -1,-1l0,-7zm-8,10c0,1.654 -1.346,3 -3,3s-3,-1.346 -3,-3c0,-0.543 0.148,-1.057 0.414,-1.506c0.52,0.896 1.478,1.506 2.586,1.506s2.066,-0.61 2.586,-1.506c0.266,0.449 0.414,0.963 0.414,1.506zm-4,-10c0,-0.551 0.449,-1 1,-1s1,0.449 1,1l0,7c0,0.551 -0.449,1 -1,1s-1,-0.449 -1,-1l0,-7zm-11,113l0,-92l84,0l0,88l-6,0c-3.86,0 -7,3.14 -7,7l0,5l-63,0c-4.187,0 -8,-3.813 -8,-8zm82.442,-2l-9.442,8.716l0,-3.716c0,-2.757 2.243,-5 5,-5l4.442,0zm1.558,-92l-84,0l0,-8c0,-4.187 3.813,-8 8,-8l1,0l0,3.025c-1.245,0.939 -2,2.412 -2,3.975c0,2.757 2.243,5 5,5s5,-2.243 5,-5c0,-1.563 -0.755,-3.035 -2,-3.975l0,-3.025l6,0l0,3.025c-1.245,0.939 -2,2.412 -2,3.975c0,2.757 2.243,5 5,5s5,-2.243 5,-5c0,-1.563 -0.755,-3.035 -2,-3.975l0,-3.025l6,0l0,3.025c-1.245,0.939 -2,2.412 -2,3.975c0,2.757 2.243,5 5,5s5,-2.243 5,-5c0,-1.563 -0.755,-3.035 -2,-3.975l0,-3.025l6,0l0,3.025c-1.245,0.939 -2,2.412 -2,3.975c0,2.757 2.243,5 5,5s5,-2.243 5,-5c0,-1.563 -0.755,-3.035 -2,-3.975l0,-3.025l6,0l0,3.025c-1.245,0.939 -2,2.412 -2,3.975c0,2.757 2.243,5 5,5s5,-2.243 5,-5c0,-1.563 -0.755,-3.035 -2,-3.975l0,-3.025l6,0l0,3.025c-1.245,0.939 -2,2.412 -2,3.975c0,2.757 2.243,5 5,5s5,-2.243 5,-5c0,-1.563 -0.755,-3.035 -2,-3.975l0,-3.025l1,0c4.187,0 8,3.813 8,8l0,8z"/>
  <path fill="#ffffff" stroke="#ffffff" id="svg_3" d="m15,43l70,0c0.552,0 1,-0.448 1,-1s-0.448,-1 -1,-1l-70,0c-0.552,0 -1,0.448 -1,1s0.448,1 1,1z"/>
  <path fill="#ffffff" stroke="#ffffff" id="svg_4" d="m15,54l70,0c0.552,0 1,-0.448 1,-1s-0.448,-1 -1,-1l-70,0c-0.552,0 -1,0.448 -1,1s0.448,1 1,1z"/>
  <path fill="#ffffff" stroke="#ffffff" id="svg_5" d="m15,65l70,0c0.552,0 1,-0.448 1,-1s-0.448,-1 -1,-1l-70,0c-0.552,0 -1,0.448 -1,1s0.448,1 1,1z"/>
  <path fill="#ffffff" stroke="#ffffff" id="svg_6" d="m15,76l70,0c0.552,0 1,-0.448 1,-1s-0.448,-1 -1,-1l-70,0c-0.552,0 -1,0.448 -1,1s0.448,1 1,1z"/>
  <path fill="#ffffff" stroke="#ffffff" id="svg_7" d="m15,87l70,0c0.552,0 1,-0.448 1,-1s-0.448,-1 -1,-1l-70,0c-0.552,0 -1,0.448 -1,1s0.448,1 1,1z"/>
  <path fill="#ffffff" stroke="#ffffff" id="svg_8" d="m15,98l70,0c0.552,0 1,-0.448 1,-1s-0.448,-1 -1,-1l-70,0c-0.552,0 -1,0.448 -1,1s0.448,1 1,1z"/>
  <path fill="#ffffff" stroke="#ffffff" id="svg_9" d="m86,108c0,-0.552 -0.448,-1 -1,-1l-70,0c-0.552,0 -1,0.448 -1,1s0.448,1 1,1l70,0c0.552,0 1,-0.448 1,-1z"/>
  <path fill="#ffffff" stroke="#ffffff" id="svg_10" d="m113,1l-6,0c-3.364,0 -6,2.636 -6,6l0,104c0,0.009 0.005,0.017 0.005,0.026c0.004,0.129 0.027,0.253 0.075,0.365c0,0.001 0,0.002 0,0.002l5.975,13.941c0.292,0.952 1.294,1.584 2.643,1.658c0.081,0.004 0.162,0.007 0.244,0.007c1.219,0 2.56,-0.492 2.977,-1.606l6,-14c0,-0.001 0,-0.001 0,-0.002c0.052,-0.121 0.081,-0.253 0.081,-0.392l0,-103.999c0,-3.364 -2.636,-6 -6,-6zm1.555,115.501l-2,-1.333c-0.398,-0.264 -0.925,-0.212 -1.262,0.125l-1.293,1.292l-1.293,-1.293c-0.336,-0.337 -0.865,-0.389 -1.262,-0.125l-2,1.333l-1.929,-4.5l12.967,0l-1.928,4.501zm-6.555,-6.501l0,-89l4,0l0,89l-4,0zm-5,0l0,-89l3,0l0,89l-3,0zm10.002,-91c-0.001,0 -0.002,0 -0.002,0s-0.002,0 -0.002,0l-5.995,0c-0.001,0 -0.002,0 -0.002,0s-0.002,0 -0.002,0l-3.999,0l0,-5l14,0l0,5l-3.998,0zm0.998,91l0,-89l3,0l0,89l-3,0zm-7,-107l6,0c2.243,0 4,1.757 4,4l0,5l-14,0l0,-5c0,-2.243 1.757,-4 4,-4zm4.064,121.648c-0.032,0.084 -0.313,0.276 -0.819,0.334c-0.669,0.079 -1.2,-0.125 -1.276,-0.23c-0.013,-0.05 -0.03,-0.099 -0.05,-0.147l-2.672,-6.235l1.626,-1.084l1.42,1.42c0.391,0.391 1.023,0.391 1.414,0l1.42,-1.42l1.626,1.084l-2.689,6.278z"/>
 </g>
</svg>