<svg width="110" height="110" xmlns="http://www.w3.org/2000/svg">

 <g>
  <title>background</title>
  <rect fill="none" id="canvas_background" height="402" width="582" y="-1" x="-1"/>
 </g>
 <g>
  <title>Layer 1</title>
  <circle id="svg_1" fill="#008050" r="55" cy="55" cx="55"/>
  <path id="svg_3" fill="#CFD3D4" d="m79,39c0,-2.209 -1.791,-4 -4,-4l-40,0c-2.209,0 -4,1.791 -4,4l0,12l48,0l0,-12z"/>
  <path id="svg_4" fill="#F0F1F1" d="m75,35l-40,0c-2.209,0 -4,1.791 -4,4l0,12l29.744,0l15.716,-15.716c-0.454,-0.178 -0.943,-0.284 -1.46,-0.284z"/>
  <rect id="svg_5" fill="#818284" y="75" x="23" width="64" height="12"/>
  <polygon id="svg_6" fill="#F0F1F1" points="31,51 79,51 87,71 23,71   "/>
  <polygon id="svg_7" fill="#FFFFFF" points="31,51 23,71 40.744,71 60.744,51   "/>
  <polygon id="svg_8" fill="#FFFFFF" points="35,43 35,27 39,31 43,27 47,31 51,27 51,43   "/>
  <rect id="svg_9" fill="#CFD3D4" y="71" x="23" width="64" height="4"/>
  <rect id="svg_10" fill="#17B198" y="39" x="55" width="20" height="8"/>
  <polygon id="svg_11" fill="#4AC3AF" points="72.744,39 55,39 55,47 64.744,47   "/>
  <rect id="svg_12" fill="#818284" y="32" x="69" width="4" height="3"/>
  <path id="svg_13" fill="#3E3E3F" d="m83,24c0,-0.552 -0.448,-1 -1,-1l-22,0c-0.552,0 -1,0.448 -1,1l0,7c0,0.552 0.448,1 1,1l22,0c0.552,0 1,-0.448 1,-1l0,-7z"/>
  <rect id="svg_14" fill="#CFD3D4" y="43" x="34" width="18" height="2"/>
  <path id="svg_15" fill="#CFD3D4" d="m47,35.5c0,0.275 -0.225,0.5 -0.5,0.5l-7,0c-0.275,0 -0.5,-0.225 -0.5,-0.5l0,0c0,-0.275 0.225,-0.5 0.5,-0.5l7,0c0.275,0 0.5,0.225 0.5,0.5l0,0z"/>
  <path id="svg_16" fill="#CFD3D4" d="m47,39.5c0,0.275 -0.225,0.5 -0.5,0.5l-7,0c-0.275,0 -0.5,-0.225 -0.5,-0.5l0,0c0,-0.275 0.225,-0.5 0.5,-0.5l7,0c0.275,0 0.5,0.225 0.5,0.5l0,0z"/>
  <circle id="svg_17" fill="#CFD3D4" r="2" cy="81" cx="55"/>
  <circle id="svg_18" fill="#CFD3D4" r="2" cy="57" cx="35"/>
  <circle id="svg_19" fill="#CFD3D4" r="2" cy="57" cx="43"/>
  <circle id="svg_20" fill="#CFD3D4" r="2" cy="57" cx="51"/>
  <circle id="svg_21" fill="#CFD3D4" r="2" cy="65" cx="33"/>
  <circle id="svg_22" fill="#CFD3D4" r="2" cy="65" cx="41"/>
  <circle id="svg_23" fill="#B6BCBD" r="2" cy="65" cx="49"/>
  <circle id="svg_24" fill="#B6BCBD" r="2" cy="65" cx="61"/>
  <circle id="svg_25" fill="#B6BCBD" r="2" cy="65" cx="69"/>
  <circle id="svg_26" fill="#17B198" r="2" cy="65" cx="77"/>
  <circle id="svg_27" fill="#B6BCBD" r="2" cy="57" cx="59"/>
  <circle id="svg_28" fill="#B6BCBD" r="2" cy="57" cx="67"/>
  <circle id="svg_29" fill="#FA5655" r="2" cy="57" cx="75"/>
  <path id="svg_30" fill="#5B5C5F" d="m74.272,23l-14.272,0c-0.552,0 -1,0.448 -1,1l0,7c0,0.552 0.448,1 1,1l5.272,0l9,-9z"/>
 </g>
</svg>