<svg width="512" height="512" xmlns="http://www.w3.org/2000/svg">
 <title/>

 <g>
  <title>background</title>
  <rect fill="none" id="canvas_background" height="402" width="582" y="-1" x="-1"/>
 </g>
 <g>
  <title>Layer 1</title>
  <path fill="#ffffff" stroke="#ffffff" id="svg_1" d="m399.32,98.5494a23.5024,23.5024 0 0 0 -17.1775,-6.6887c-93.15,2.6371 -182.2329,24.7479 -250.8389,62.2583a49.8552,49.8552 0 0 0 -0.737,86.9316l118.1665,68.2243l0,90.7174a19.3853,19.3853 0 0 0 38.77,0l0,-68.3323l19.8,11.4326l0,22.9574a19.3853,19.3853 0 0 0 38.7705,0l0,-0.574l52.7331,30.4444a5.1,5.1 0 0 0 7.65,-4.4177l0,-276.072a23.3614,23.3614 0 0 0 -7.1367,-16.8813zm-92.0165,232.7629l-19.8,-11.4327l0,-21.6233a1.1165,1.1165 0 0 1 1.6709,-0.9688l12.16,7.025a11.9609,11.9609 0 0 1 5.969,10.3345l0.0001,16.6653zm88.9536,51.3577l-50.1831,-28.973l0,-21.6258a1.1122,1.1122 0 0 1 1.6709,-0.9638l48.5122,28.0074l0,23.5552zm0,-263.6365a72.1432,72.1432 0 0 0 -11.4326,-1.0008c-25.2984,0 -45.1155,12.3915 -45.1155,28.2094s19.8171,28.2069 45.1155,28.2069a72.2533,72.2533 0 0 0 11.4326,-0.9986l0,83.6946c-20.6072,1.4207 -36.1482,12.1284 -36.1482,25.5573c0,13.3837 15.4394,24.06 36.1482,25.5357l0,39.0974l-43.4121,-25.0608a11.3122,11.3122 0 0 0 -16.971,9.7966l0,33.9788a9.1853,9.1853 0 0 1 -18.3706,0l0,-51.403a22.1971,22.1971 0 0 0 -11.0691,-19.17l-12.1622,-7.0225a11.314,11.314 0 0 0 -16.9684,9.8016l0,101.736a9.1853,9.1853 0 0 1 -18.3706,0l0,-120.4748a22.2157,22.2157 0 0 0 -11.1138,-19.1948l-97.0046,-54.6925a9.0615,9.0615 0 0 1 -4.52,-7.8293a8.9282,8.9282 0 0 1 4.5672,-7.8766c66.6254,-36.4265 153.6019,-56.7356 245.395,-57.465l0.0002,-13.4256zm0,-20.33c-93.4793,0.7324 -182.1929,21.4838 -250.2883,58.7147a19.2586,19.2586 0 0 0 -0.2093,33.516l97.0047,54.6931a11.9609,11.9609 0 0 1 5.969,10.3345l0,17.9779l-113.0667,-41.722a39.912,39.912 0 0 1 -19.9717,-34.4177a39.5064,39.5064 0 0 1 20.5,-34.7313c67.2187,-36.7508 154.6684,-58.4184 246.2368,-61.0132a13.6439,13.6439 0 0 1 9.779,3.8075a13.239,13.239 0 0 1 4.0467,9.5675l-0.0002,-16.727z"/>
  <path fill="#ffffff" stroke="#ffffff" id="svg_2" d="m281.3851,255.5338c30.4457,0 54.2946,-14.72 54.2946,-33.5086s-23.8489,-33.5061 -54.2946,-33.5061s-54.2945,14.7173 -54.2945,33.5061s23.8494,33.5086 54.2945,33.5086z"/>
  <path fill="#ffffff" stroke="#ffffff" id="svg_3" d="m196.72,207.8682a5.0994,5.0994 0 0 0 7.2117,-7.2117l-7.7372,-7.74a5.0995,5.0995 0 0 0 -7.2118,7.2117l7.7373,7.74z"/>
  <path fill="#ffffff" stroke="#ffffff" id="svg_4" d="m367.729,235.7589a5.0995,5.0995 0 0 0 7.2117,-7.2118l-7.7371,-7.74a5.0994,5.0994 0 0 0 -7.2117,7.2117l7.7371,7.7401z"/>
  <path fill="#ffffff" stroke="#ffffff" id="svg_5" d="m329.9771,261.4481a5.0982,5.0982 0 0 0 0,7.2118l7.7371,7.74a5.1,5.1 0 0 0 7.2118,-7.2118l-7.7373,-7.74a5.098,5.098 0 0 0 -7.2116,0z"/>
  <path fill="#ffffff" stroke="#ffffff" id="svg_6" d="m301.6432,169.6705a5.0995,5.0995 0 0 0 7.2118,-7.2117l-7.74,-7.74a5.0994,5.0994 0 0 0 -7.2116,7.2116l7.7398,7.7401z"/>
 </g>
</svg>